<?xml version="1.0" standalone="no"?>
<!DOCTYPE svg PUBLIC "-//W3C//DTD SVG 20010904//EN"
 "http://www.w3.org/TR/2001/REC-SVG-20010904/DTD/svg10.dtd">
<svg version="1.0" xmlns="http://www.w3.org/2000/svg"
 width="475.000000pt" height="475.000000pt" viewBox="0 0 475.000000 475.000000"
 preserveAspectRatio="xMidYMid meet">
<metadata>
Created by potrace 1.11, written by Peter Selinger 2001-2013
</metadata>
<g transform="translate(0.000000,475.000000) scale(0.100000,-0.100000)"
fill="#000000" stroke="none">
<path d="M2302 4648 c-27 -15 -65 -54 -109 -113 -203 -269 -286 -373 -481
-600 -246 -287 -693 -729 -977 -965 -49 -41 -95 -79 -101 -85 -37 -32 -75 -61
-220 -170 -88 -66 -199 -147 -245 -179 -113 -79 -142 -115 -143 -174 -1 -66
24 -96 167 -198 219 -157 501 -377 662 -519 214 -188 628 -598 811 -804 182
-205 433 -526 539 -689 57 -89 91 -112 163 -112 69 0 90 15 159 114 94 134
329 435 408 522 5 7 30 36 55 65 199 234 445 484 786 800 231 213 651 544 824
649 126 76 152 150 88 246 -18 26 -42 52 -53 58 -100 55 -406 282 -620 461
-226 189 -425 376 -675 636 -215 223 -263 276 -400 438 -25 29 -53 63 -64 75
-57 66 -235 298 -307 401 -115 164 -172 194 -267 143z m163 -589 c67 -18 153
-72 305 -194 443 -355 846 -769 1178 -1210 171 -229 194 -302 131 -428 -150
-296 -813 -998 -1309 -1387 -282 -221 -371 -255 -496 -189 -167 88 -328 215
-664 521 -419 382 -705 695 -913 1001 -123 180 -91 272 221 645 228 274 652
696 935 930 127 106 353 275 397 297 64 33 124 37 215 14z"/>
<path d="M1650 3250 l0 -240 65 0 65 0 0 240 0 240 -65 0 -65 0 0 -240z"/>
<path d="M1855 3478 c-3 -8 -4 -115 -3 -238 l3 -225 183 -3 182 -2 0 45 0 45
-121 0 -120 0 3 53 3 52 108 3 108 3 -3 41 -3 41 -105 1 -105 1 -3 53 -3 52
121 0 121 0 -3 43 -3 42 -178 3 c-138 2 -179 0 -182 -10z"/>
<path d="M2300 3250 l0 -240 180 0 180 0 0 45 0 45 -121 0 -120 0 3 53 3 52
108 3 108 3 -3 41 -3 42 -105 1 -105 0 -3 53 -3 52 121 0 121 0 -3 43 -3 42
-177 3 -178 2 0 -240z"/>
<path d="M2739 3483 c0 -5 0 -111 0 -238 l0 -230 181 -3 180 -2 0 45 0 45
-121 0 -120 0 3 53 3 52 108 3 108 3 -3 41 -3 41 -105 1 -105 1 0 50 0 50 118
3 117 3 0 44 0 45 -180 0 c-99 0 -180 -3 -181 -7z"/>
<path d="M2326 2914 c-17 -16 -14 -49 7 -89 6 -11 10 -64 8 -122 -2 -98 -2
-103 18 -103 11 0 23 5 26 10 3 6 13 10 22 10 13 0 13 -3 3 -15 -13 -16 -10
-18 14 -9 12 5 14 21 10 98 -3 69 -1 101 11 129 21 50 19 84 -4 97 -30 15 -97
12 -115 -6z m52 -51 c-3 -65 -19 -78 -36 -30 -22 60 -14 84 26 86 10 1 12 -14
10 -56z m62 12 c0 -40 -18 -75 -35 -69 -10 4 -15 20 -15 53 0 26 3 51 6 54 13
13 44 -14 44 -38z m-50 -85 c0 -5 -7 -10 -16 -10 -8 0 -12 5 -9 10 3 6 10 10
16 10 5 0 9 -4 9 -10z m30 -19 c0 -10 -50 -25 -58 -17 -3 3 6 10 19 15 31 13
39 13 39 2z m0 -30 c0 -10 -50 -25 -58 -17 -3 3 6 10 19 15 31 13 39 13 39 2z
m0 -30 c0 -9 -35 -21 -60 -20 -8 0 -1 7 15 14 36 17 45 18 45 6z m0 -30 c0 -5
-14 -14 -31 -20 -39 -13 -39 -13 -39 -2 0 5 12 14 28 19 35 13 42 14 42 3z
m-6 -40 c-14 -14 -64 -25 -64 -14 0 6 15 15 33 20 35 10 46 8 31 -6z"/>
<path d="M2188 2745 c-26 -14 -49 -29 -52 -34 -3 -5 19 4 49 21 30 16 55 31
55 34 0 6 0 6 -52 -21z"/>
<path d="M2269 2750 c21 -18 22 -23 10 -31 -7 -5 -9 -9 -4 -9 6 0 16 4 23 8
10 7 8 12 -5 24 -10 8 -25 18 -33 22 -8 4 -4 -2 9 -14z"/>
<path d="M2480 2750 c0 -5 7 -7 15 -4 8 4 15 8 15 10 0 2 -7 4 -15 4 -8 0 -15
-4 -15 -10z"/>
<path d="M2528 2743 c7 -3 16 -2 19 1 4 3 -2 6 -13 5 -11 0 -14 -3 -6 -6z"/>
<path d="M2588 2711 c36 -31 40 -55 15 -85 -18 -21 -18 -21 5 -2 27 24 29 62
2 78 -11 7 -20 18 -20 25 0 7 -8 13 -17 13 -14 -1 -10 -8 15 -29z"/>
<path d="M2490 2721 c0 -6 4 -13 10 -16 6 -3 7 1 4 9 -7 18 -14 21 -14 7z"/>
<path d="M2530 2717 c0 -2 13 -13 30 -25 17 -13 27 -17 24 -8 -4 11 -54 41
-54 33z"/>
<path d="M2232 2694 c-31 -21 -28 -50 8 -69 42 -22 51 -18 13 5 -39 23 -42 42
-10 63 12 9 20 16 17 16 -3 1 -16 -6 -28 -15z"/>
<path d="M2121 2667 c-1 -21 7 -32 32 -47 44 -27 58 -25 16 3 -18 12 -36 33
-40 47 l-7 25 -1 -28z"/>
<path d="M2561 2640 c-13 -11 -19 -20 -14 -20 6 0 18 9 28 20 23 25 17 25 -14
0z"/>
<path d="M2468 2603 c7 -3 16 -2 19 1 4 3 -2 6 -13 5 -11 0 -14 -3 -6 -6z"/>
<path d="M2530 2595 c-19 -7 -28 -14 -20 -14 8 0 29 6 45 14 39 17 21 18 -25
0z"/>
<path d="M2248 2583 c7 -3 16 -2 19 1 4 3 -2 6 -13 5 -11 0 -14 -3 -6 -6z"/>
<path d="M2318 2573 c20 -4 22 -10 22 -63 l0 -58 -49 -12 c-28 -6 -70 -25 -96
-41 l-46 -29 23 -30 c12 -16 23 -30 25 -30 1 0 22 13 45 29 85 58 109 47 87
-41 -12 -46 -15 -49 -68 -70 -45 -17 -78 -22 -166 -22 -60 -1 -127 3 -147 7
l-38 8 0 -308 c0 -342 4 -371 65 -500 64 -136 180 -280 299 -372 l53 -41 6
-103 c3 -75 11 -116 27 -155 13 -28 26 -52 31 -52 20 0 52 119 57 207 l4 93
85 71 c104 89 200 207 257 319 75 145 76 152 76 517 l0 324 -37 -8 c-21 -4
-85 -8 -143 -7 -85 1 -118 5 -170 25 l-65 24 -9 58 c-5 31 -6 60 -3 63 12 12
57 -7 92 -38 l36 -31 30 30 31 30 -49 31 c-26 17 -69 37 -95 43 l-48 13 0 57
c0 46 4 59 18 63 9 3 -5 3 -33 0 -54 -6 -55 -6 -100 -1 -16 3 -20 2 -7 0z
m106 -23 c-5 -5 -25 -12 -44 -15 l-35 -5 30 14 c35 18 64 21 49 6z m0 -30 c-5
-5 -25 -12 -44 -15 l-35 -5 30 14 c35 18 64 21 49 6z m0 -30 c-14 -14 -74 -30
-74 -20 0 9 45 28 70 29 9 1 11 -2 4 -9z m4 -37 c-2 -13 -14 -19 -41 -21 -46
-4 -49 14 -4 27 46 13 49 13 45 -6z m-61 -33 c20 -7 38 -8 56 -1 27 11 103 -6
160 -35 27 -14 27 -15 10 -39 l-18 -23 -25 23 c-48 44 -111 60 -137 34 -9 -9
-20 -9 -43 1 -40 17 -86 6 -131 -30 -35 -28 -37 -28 -53 -11 -9 10 -16 20 -16
24 0 11 56 36 112 51 29 8 53 15 54 15 1 1 14 -4 31 -9z m40 -58 c18 14 19 12
26 -44 l7 -47 -26 11 c-20 9 -30 9 -46 -1 -11 -7 -22 -11 -24 -9 -2 2 -1 27 3
56 5 49 6 51 26 37 15 -11 24 -12 34 -3z m181 -163 c40 -7 103 -10 168 -6
l104 6 0 -308 c0 -346 -2 -359 -81 -511 -71 -137 -241 -324 -359 -393 l-30
-18 0 655 0 655 68 -34 c37 -18 95 -39 130 -46z m-354 -283 c72 -30 87 -97 34
-150 -18 -18 -39 -35 -47 -37 -21 -7 81 -139 127 -164 l37 -20 -60 -3 c-53 -3
-62 -1 -75 20 -45 69 -107 143 -123 146 -15 3 -17 -5 -17 -67 0 -67 1 -71 25
-77 51 -13 23 -24 -60 -24 -83 0 -111 11 -60 24 l25 7 -2 162 c-3 159 -3 162
-25 165 -13 2 -23 10 -23 18 0 20 196 20 244 0z m145 -953 c3 -2 7 -53 9 -113
5 -176 -33 -128 -45 55 -6 87 -5 90 13 75 10 -8 21 -16 23 -17z m58 -65 c-3
-46 -12 -101 -20 -123 -16 -40 -16 -39 -16 71 -1 73 3 114 11 122 25 25 31 11
25 -70z"/>
<path d="M2450 1910 c0 -5 6 -10 13 -10 26 0 44 -35 107 -203 35 -92 67 -166
72 -165 5 2 40 79 78 171 71 174 83 197 106 197 8 0 14 5 14 10 0 6 -30 10
-70 10 -72 0 -94 -13 -40 -23 20 -4 30 -13 30 -24 0 -21 -91 -253 -99 -253 -7
0 -101 250 -101 268 0 6 9 12 19 12 11 0 23 5 26 10 4 6 -23 10 -74 10 -47 0
-81 -4 -81 -10z"/>
<path d="M2108 1820 l-3 -80 31 0 c49 0 84 34 84 81 0 50 -27 79 -74 79 l-34
0 -4 -80z"/>
</g>
</svg>
